
<?xml version="1.0" encoding="utf-8"?>
<!-- Generator: Adobe Illustrator 22.1.0, SVG Export Plug-In . SVG Version: 6.00 Build 0)  -->
<svg version="1.1" id="Layer_1" xmlns="http://www.w3.org/2000/svg" xmlns:xlink="http://www.w3.org/1999/xlink" x="0px" y="0px"
	 viewBox="0 0 310 300" style="enable-background:new 0 0 310 300;" xml:space="preserve">
<style type="text/css">
	.st0{fill:#4599C3;}
	.st1{fill:#FFFFFF;}
</style>
<path id="_x3C_ChargerPVD_x3E_" class="st0" d="M186.1,120.2h-50.5c-1,0-1.9,0.8-1.9,1.9v55.2c0,1,0.8,1.9,1.9,1.9h50.5
	c1,0,1.9-0.8,1.9-1.9v-55.2C187.9,121.1,187.1,120.2,186.1,120.2z M181.1,166.8c0,3.2-2.6,5.8-5.8,5.8h-29c-3.2,0-5.8-2.6-5.8-5.8
	v-34.1c0-3.2,2.6-5.8,5.8-5.8h29c3.2,0,5.8,2.6,5.8,5.8V166.8z"/>
<g id="1-active">
	<path class="st0" d="M37.1,173.7v-49c0-7.3,5.9-13.2,13.2-13.2h47.1c0.7,0,1.5,0.1,2.2,0.4l24.8,8.7c2.7,0.9,4.5,3.5,4.5,6.3v44.8
		c0,2.8-1.8,5.4-4.5,6.3l-24.8,8.6c-0.7,0.2-1.4,0.4-2.2,0.4H50.3C43,187,37.1,181,37.1,173.7z"/>
	<ellipse class="st1" cx="83" cy="150.2" rx="25.3" ry="25.3"/>
	<ellipse transform="matrix(0.9786 -0.2059 0.2059 0.9786 -29.1474 20.308)" class="st0" cx="83" cy="150.2" rx="20.9" ry="20.9"/>
	<path class="st1" d="M85.7,154.6h-5.4l-1,3.1H76l5.5-14.9h2.8l5.6,14.9h-3.3L85.7,154.6z M81.1,152.1h3.7l-1.9-5.6L81.1,152.1z"/>
</g>
<g id="2-active">
	<path class="st0" d="M136.4,23.4h49c7.3,0,13.2,5.9,13.2,13.2v47.1c0,0.7-0.1,1.5-0.4,2.2l-8.7,24.8c-0.9,2.7-3.5,4.5-6.3,4.5
		h-44.8c-2.8,0-5.4-1.8-6.3-4.5l-8.6-24.8c-0.2-0.7-0.4-1.4-0.4-2.2V36.6C123.2,29.3,129.1,23.4,136.4,23.4z"/>
	<ellipse class="st1" cx="160.8" cy="69.3" rx="25.3" ry="25.3"/>
	
		<ellipse transform="matrix(0.9786 -0.2059 0.2059 0.9786 -10.8236 34.5935)" class="st0" cx="160.8" cy="69.3" rx="20.9" ry="20.9"/>
	<path class="st1" d="M155.3,76.7V61.9h5.2c1.8,0,3.2,0.3,4.1,1c0.9,0.7,1.4,1.7,1.4,3c0,0.7-0.2,1.4-0.6,1.9
		c-0.4,0.6-0.9,1-1.6,1.2c0.8,0.2,1.4,0.6,1.8,1.2c0.4,0.6,0.7,1.3,0.7,2.1c0,1.4-0.5,2.5-1.4,3.2s-2.2,1.1-3.9,1.1h-5.7V76.7z
		 M158.4,68.1h2.3c1.5,0,2.3-0.6,2.3-1.8c0-0.7-0.2-1.2-0.6-1.5c-0.4-0.3-1-0.4-1.9-0.4h-2.1V68.1z M158.4,70.2v4h2.6
		c0.7,0,1.3-0.2,1.7-0.5s0.6-0.8,0.6-1.4c0-1.4-0.7-2.1-2.1-2.1H158.4z"/>
</g>
<g id="3-active">
	<path class="st0" d="M185.4,276h-49c-7.3,0-13.2-5.9-13.2-13.2v-47.1c0-0.7,0.1-1.5,0.4-2.2l8.7-24.8c0.9-2.7,3.5-4.5,6.3-4.5h44.8
		c2.8,0,5.4,1.8,6.3,4.5l8.6,24.8c0.2,0.7,0.4,1.4,0.4,2.2v47.1C198.6,270.1,192.7,276,185.4,276z"/>
	<ellipse class="st1" cx="160.8" cy="231.8" rx="25.3" ry="25.3"/>
	<ellipse class="st0" cx="160.8" cy="231.8" rx="20.9" ry="20.9"/>
	<path class="st1" d="M166.9,234.2c-0.1,1.6-0.7,2.9-1.8,3.8c-1.1,0.9-2.5,1.4-4.2,1.4c-1.9,0-3.4-0.6-4.5-1.9
		c-1.1-1.3-1.6-3-1.6-5.3v-0.9c0-1.4,0.3-2.7,0.8-3.8s1.2-1.9,2.2-2.5c0.9-0.6,2-0.9,3.3-0.9c1.7,0,3.1,0.5,4.1,1.4s1.7,2.2,1.8,3.9
		h-3.1c-0.1-1-0.3-1.7-0.8-2.1s-1.2-0.6-2.1-0.6c-1,0-1.8,0.4-2.3,1.1s-0.8,1.9-0.8,3.4v1.1c0,1.6,0.2,2.8,0.7,3.5s1.3,1.1,2.3,1.1
		c0.9,0,1.7-0.2,2.1-0.6s0.7-1.1,0.8-2L166.9,234.2L166.9,234.2z"/>
</g>
<g id="1-hover">
	<path class="st0" d="M97.4,113.6c0.5,0,1,0.1,1.5,0.3l24.8,8.7c1.9,0.7,3.1,2.4,3.1,4.4v44.8c0,2-1.3,3.8-3.2,4.4l-24.8,8.6
		c-0.5,0.2-1,0.3-1.5,0.3H50.3c-6.2,0-11.2-5-11.2-11.2v-49c0-6.2,5-11.2,11.2-11.2H97.4 M97.4,111.6H50.3
		c-7.3,0-13.2,5.9-13.2,13.2v49c0,7.3,5.9,13.2,13.2,13.2h47.1c0.7,0,1.5-0.1,2.2-0.4l24.8-8.6c2.7-0.9,4.5-3.5,4.5-6.3v-44.8
		c0-2.8-1.8-5.4-4.5-6.3l-24.8-8.7C98.9,111.7,98.2,111.6,97.4,111.6L97.4,111.6z"/>
	<ellipse transform="matrix(0.9786 -0.2059 0.2059 0.9786 -29.1474 20.308)" class="st0" cx="83" cy="150.2" rx="20.9" ry="20.9"/>
	<path class="st1" d="M85.7,154.6h-5.4l-1,3.1H76l5.5-14.9h2.8l5.6,14.9h-3.3L85.7,154.6z M81.1,152.1h3.7l-1.9-5.6L81.1,152.1z"/>
</g>
<g id="2-hover">
	<path class="st0" d="M185.4,25.4c6.2,0,11.2,5,11.2,11.2v47.1c0,0.5-0.1,1-0.3,1.5l-8.7,24.8c-0.7,1.9-2.4,3.1-4.4,3.1h-44.8
		c-2,0-3.8-1.3-4.4-3.2l-8.6-24.8c-0.2-0.5-0.3-1-0.3-1.5V36.6c0-6.2,5-11.2,11.2-11.2H185.4 M185.4,23.4h-49
		c-7.3,0-13.2,5.9-13.2,13.2v47.1c0,0.7,0.1,1.5,0.4,2.2l8.6,24.8c0.9,2.7,3.5,4.5,6.3,4.5h44.8c2.8,0,5.4-1.8,6.3-4.5l8.7-24.8
		c0.2-0.7,0.4-1.5,0.4-2.2V36.6C198.6,29.3,192.7,23.4,185.4,23.4L185.4,23.4z"/>
	
		<ellipse transform="matrix(0.9786 -0.2059 0.2059 0.9786 -10.8236 34.5935)" class="st0" cx="160.8" cy="69.3" rx="20.9" ry="20.9"/>
	<path class="st1" d="M155.3,76.7V61.9h5.2c1.8,0,3.2,0.3,4.1,1c0.9,0.7,1.4,1.7,1.4,3c0,0.7-0.2,1.4-0.6,1.9
		c-0.4,0.6-0.9,1-1.6,1.2c0.8,0.2,1.4,0.6,1.8,1.2c0.4,0.6,0.7,1.3,0.7,2.1c0,1.4-0.5,2.5-1.4,3.2s-2.2,1.1-3.9,1.1h-5.7V76.7z
		 M158.4,68.1h2.3c1.5,0,2.3-0.6,2.3-1.8c0-0.7-0.2-1.2-0.6-1.5c-0.4-0.3-1-0.4-1.9-0.4h-2.1V68.1z M158.4,70.2v4h2.6
		c0.7,0,1.3-0.2,1.7-0.5s0.6-0.8,0.6-1.4c0-1.4-0.7-2.1-2.1-2.1H158.4z"/>
</g>
<g id="3-hover">
	<path class="st0" d="M183.3,186.2c2,0,3.8,1.3,4.4,3.2l8.6,24.8c0.2,0.5,0.3,1,0.3,1.5v47.1c0,6.2-5,11.2-11.2,11.2h-49
		c-6.2,0-11.2-5-11.2-11.2v-47.1c0-0.5,0.1-1,0.3-1.5l8.7-24.8c0.7-1.9,2.4-3.1,4.4-3.1H183.3 M183.3,184.2h-44.8
		c-2.8,0-5.4,1.8-6.3,4.5l-8.7,24.8c-0.2,0.7-0.4,1.5-0.4,2.2v47.1c0,7.3,5.9,13.2,13.2,13.2h49c7.3,0,13.2-5.9,13.2-13.2v-47.1
		c0-0.7-0.1-1.5-0.4-2.2l-8.6-24.8C188.7,186,186.2,184.2,183.3,184.2L183.3,184.2z"/>
	<ellipse class="st0" cx="160.8" cy="231.8" rx="20.9" ry="20.9"/>
	<path class="st1" d="M166.9,234.2c-0.1,1.6-0.7,2.9-1.8,3.8c-1.1,0.9-2.5,1.4-4.2,1.4c-1.9,0-3.4-0.6-4.5-1.9
		c-1.1-1.3-1.6-3-1.6-5.3v-0.9c0-1.4,0.3-2.7,0.8-3.8s1.2-1.9,2.2-2.5c0.9-0.6,2-0.9,3.3-0.9c1.7,0,3.1,0.5,4.1,1.4s1.7,2.2,1.8,3.9
		h-3.1c-0.1-1-0.3-1.7-0.8-2.1s-1.2-0.6-2.1-0.6c-1,0-1.8,0.4-2.3,1.1s-0.8,1.9-0.8,3.4v1.1c0,1.6,0.2,2.8,0.7,3.5s1.3,1.1,2.3,1.1
		c0.9,0,1.7-0.2,2.1-0.6s0.7-1.1,0.8-2L166.9,234.2L166.9,234.2z"/>
</g>
</svg>
