<svg version="1.1" id="Layer_1" xmlns="http://www.w3.org/2000/svg" xmlns:xlink="http://www.w3.org/1999/xlink" x="0px" y="0px"
	 viewBox="0 0 310.1 425.8" style="enable-background:new 0 0 310.1 425.8;" xml:space="preserve">
<style type="text/css">
	.st0{fill:#C77924;}
	.st1{fill:#E68B2A;}
	.st2{fill:#F4942D;}
	.st3{fill:#F4A653;}
	.st4{fill:#F4B97A;}
	.st5{display:none;}
	.st6{display:inline;fill:#E5E5E5;stroke:#8C8C8C;stroke-miterlimit:10;}
	.st7{display:inline;fill:#DEDEDE;stroke:#737373;stroke-miterlimit:10;}
	.st8{display:inline;fill:#379ED7;stroke:#003366;stroke-miterlimit:10;}
	.st9{display:inline;fill:#808080;}
	.st10{display:inline;fill:#A1A1A1;}
	.st11{display:inline;fill:#D7D7D7;stroke:#737373;stroke-miterlimit:10;}
	.st12{display:inline;fill:#BFBFBF;stroke:#8C8C8C;stroke-miterlimit:10;}
	.st13{display:inline;fill:#999999;stroke:#666666;stroke-miterlimit:10;}
	.st14{display:inline;fill:#B3B3B3;stroke:#666666;stroke-miterlimit:10;}
	.st15{display:inline;fill:#999999;stroke:#404040;stroke-miterlimit:10;}
	.st16{display:inline;fill:#8C8D8C;stroke:#404040;stroke-miterlimit:10;}
	.st17{display:inline;fill:#555755;}
	.st18{display:inline;fill:#878787;stroke:#404040;stroke-miterlimit:10;}
	.st19{display:inline;fill:none;stroke:#A1A1A1;stroke-width:2;stroke-miterlimit:10;}
	.st20{fill:#4599C3;}
	.st21{fill:#FFFFFF;}
</style>
<symbol  id="New_Symbol_1" viewBox="-52.8 -48.5 105.6 97">
	<rect x="-49.2" y="-48.5" class="st0" width="99" height="7"/>
	<rect x="-40.2" y="-41.5" class="st1" width="81" height="14"/>
	<path class="st2" d="M-40.2-27.5h81l0,0v61.2c0,8.2-6.6,14.8-14.8,14.8h-51.3c-8.2,0-14.8-6.6-14.8-14.8v-61.2H-40.2z"/>
	<path class="st0" d="M-52.8-18.5V17c0,3.1,1.6,5.9,4.2,7.6l8.3,5.3v-8.5l-5.2-4.2c-1.2-1-1.8-2.4-1.8-3.9v-28.1c0-1.6,0.7-3.1,2-4
		l5-3.9V-31l-8.1,4.8C-51.1-24.6-52.8-21.6-52.8-18.5z"/>
	<path class="st0" d="M52.8,17.5v-35.6c0-3.1-1.6-5.9-4.2-7.6L40.2-31v8.5l5.2,4.2c1.2,1,1.8,2.4,1.8,3.9v28.1c0,1.6-0.7,3.1-2,4
		l-5,3.8V30l8.1-4.8C51.1,23.6,52.7,20.7,52.8,17.5z"/>
	<path class="st3" d="M13.7,37.5H-13c-4.8,0-9.3-2.7-11.5-7l-6.2-12c-1-1.9-1.5-3.9-1.5-6v-40h65v41c0,2.2-0.5,4.3-1.6,6.2l-6,11
		C22.9,34.9,18.5,37.5,13.7,37.5z"/>
	<rect x="-10.2" y="-4.5" class="st4" width="20" height="27"/>
</symbol>
<g id="enduraplatform">
	<g id="Layer_1_1_" class="st5">
		<path class="st6" d="M17.6,635.9l-27.8,78.8c-0.8,2.2-2.3,4-4.3,5.1l-12.6,6.9v18.2H98.5l24.9-70.1L17.6,635.9z"/>
		<path class="st6" d="M283.9,726.4l-12.6-6.9c-2-1.1-3.6-2.9-4.3-5.1l-27.9-78.8l-105.7,38.9l25,70.4h125.5L283.9,726.4
			L283.9,726.4z"/>
		<rect x="57.6" y="-218.5" class="st7" width="141.7" height="164.7"/>
		<rect x="104.5" y="-298.2" class="st8" width="94.8" height="79.7"/>
		<polygon class="st8" points="51.6,-53.8 57.6,-53.8 57.6,-218.5 19.6,-218.5 19.6,-124.1 		"/>
		<polygon class="st8" points="205.3,-53.8 199.4,-53.8 199.4,-298.2 237.3,-269 237.3,-124.1 		"/>
		<polygon class="st8" points="104.5,-218.5 19.6,-218.5 19.6,-261.6 57.6,-347.6 104.5,-347.6 		"/>
		<ellipse class="st9" cx="128.4" cy="-136.2" rx="46.8" ry="46.7"/>
		<ellipse class="st10" cx="128.4" cy="-136.2" rx="38.8" ry="38.8"/>
		<polygon class="st7" points="303.8,64.8 217.6,-47.5 348.5,-147.6 434.7,-35.3 		"/>
		<polygon class="st8" points="498.1,-83.8 440.5,-159 377.1,-110.5 434.7,-35.3 		"/>
		<polygon class="st8" points="214,-52.2 217.6,-47.5 348.5,-147.6 325.5,-177.7 250.4,-120.3 		"/>
		<polygon class="st8" points="307.5,69.6 303.9,64.9 498.2,-83.7 498.1,-35.9 382.8,52.2 		"/>
		<polygon class="st8" points="377.1,-110.5 325.5,-177.7 359.7,-203.9 451.2,-226.2 479.7,-189 		"/>
		
			<ellipse transform="matrix(1.880765e-02 -0.9998 0.9998 1.880765e-02 361.4121 285.3398)" class="st9" cx="326.1" cy="-41.5" rx="46.7" ry="46.8"/>
		<ellipse class="st10" cx="326.2" cy="-41.5" rx="38.8" ry="38.8"/>
		
			<rect x="299.9" y="91.5" transform="matrix(0.2392 -0.971 0.971 0.2392 113.0485 492.244)" class="st7" width="141.5" height="164.9"/>
		
			<rect x="436.6" y="186" transform="matrix(0.2392 -0.971 0.971 0.2392 148.7792 641.7521)" class="st8" width="94.7" height="79.9"/>
		<polygon class="st8" points="308.9,80 307.5,85.7 467.6,125 476.7,88.3 384.9,65.7 		"/>
		<polygon class="st8" points="272.2,228.9 273.6,223.2 511.3,281.6 473.9,311.4 332.9,276.8 		"/>
		<polygon class="st8" points="456.4,170.5 476.7,88.3 518.6,98.5 593.3,155.9 582.1,201.3 		"/>
		<ellipse class="st9" cx="370.6" cy="174.1" rx="46.8" ry="46.7"/>
		<ellipse class="st10" cx="370.6" cy="174.1" rx="38.8" ry="38.8"/>
		<polygon class="st7" points="38.6,-50.7 -46.2,62.7 -178.4,-35.7 -93.7,-149.1 		"/>
		<polygon class="st8" points="-157.7,-196.8 -214.4,-120.9 -150.3,-73.3 -93.7,-149.1 		"/>
		<polygon class="st8" points="-49.7,67.4 -46.2,62.7 -178.4,-35.7 -201.1,-5.4 -125.3,51.1 		"/>
		<polygon class="st8" points="42.2,-55.6 38.6,-50.8 -157.6,-196.9 -111.5,-209.8 4.9,-123.2 		"/>
		<polygon class="st8" points="-150.3,-73.3 -201.1,-5.4 -235.7,-31.1 -282.1,-112.9 -254,-150.5 		"/>
		<ellipse class="st9" cx="-69.9" cy="-43.2" rx="46.8" ry="46.7"/>
		<ellipse class="st10" cx="-69.9" cy="-43.2" rx="38.8" ry="38.8"/>
		<polygon class="st8" points="-19.4,228.1 -32.3,168.3 -273,218.4 -258.6,285.7 -208.4,299.7 -83.1,272.9 		"/>
		<polygon class="st8" points="-52.6,73.7 -45.9,105 -286,157.7 -254.3,85.7 -129,58.9 		"/>
		
			<rect x="-196.1" y="99" transform="matrix(0.9777 -0.21 0.21 0.9777 -37.7313 -20.4475)" class="st7" width="161.9" height="136.9"/>
		<ellipse class="st9" cx="-110.6" cy="166.4" rx="46.8" ry="46.7"/>
		<ellipse class="st10" cx="-110.6" cy="166.4" rx="38.8" ry="38.8"/>
		
			<rect x="-280.4" y="148.3" transform="matrix(0.9777 -0.21 0.21 0.9777 -42.9786 -46.0648)" class="st8" width="84" height="62.1"/>
		<polygon class="st8" points="274.6,383.4 287.9,443.2 528.3,391.2 513.3,324.1 463,310.4 337.9,338.2 		"/>
		<polygon class="st8" points="308.9,537.7 302,506.4 541.8,451.8 510.6,524.1 385.5,551.9 		"/>
		
			<rect x="289.9" y="374.9" transform="matrix(0.9761 -0.2173 0.2173 0.9761 -87.4664 91.1788)" class="st7" width="161.9" height="136.8"/>
		<ellipse class="st9" cx="366.3" cy="444.4" rx="46.8" ry="46.7"/>
		<ellipse class="st10" cx="366.3" cy="444.4" rx="38.8" ry="38.8"/>
		
			<rect x="451.9" y="399.5" transform="matrix(0.9761 -0.2173 0.2173 0.9761 -81.7554 117.6128)" class="st8" width="84" height="62.1"/>
		<path class="st11" d="M242.8,634.5l-110.2,40.3c-3.1,1.1-6.5,1.1-9.5,0L13.7,634.2c-2.9-1.1-5.4-3.1-7-5.8l-51-84
			c-1.8-3-2.4-6.6-1.7-10l34.1-161.2c1.2-5.5-1.2-11.2-5.9-14.3l-14.9-9.8c-3.9-2.5-6.2-6.9-6.2-11.5v-64c0-4.9,2.6-9.4,6.8-11.8
			l15.8-9.4c5.1-3,7.7-8.9,6.4-14.7L-43.9,80c-0.8-3.9,0.1-7.9,2.4-11.1L40.6-42.2c2.6-3.5,6.7-5.6,11.1-5.6h150.9
			c4.3,0,8.3,2,10.9,5.4l85.9,111.2c2.5,3.3,3.5,7.6,2.5,11.6l-37.5,156.3c-1.4,5.7,1,11.7,6,14.8l16.2,10.3c4,2.5,6.4,6.9,6.4,11.6
			v64.3c0,4.6-2.3,9-6.2,11.5l-14.8,9.7c-4.8,3.1-7.1,8.8-6,14.3l34.2,161.4c0.7,3.3,0.1,6.8-1.6,9.7l-48.8,84.2
			C248.3,631.2,245.8,633.4,242.8,634.5z"/>
		<ellipse class="st12" cx="224.2" cy="306.1" rx="60.2" ry="60.1"/>
		<ellipse class="st12" cx="32.7" cy="306.1" rx="60.2" ry="60.1"/>
		<ellipse class="st12" cx="128.4" cy="111.5" rx="139.7" ry="139.5"/>
		<ellipse class="st12" cx="128.4" cy="495.1" rx="139.7" ry="139.5"/>
		<rect x="-73.3" y="757.4" class="st13" width="423.2" height="157"/>
		<rect x="-64.2" y="766.5" class="st14" width="405" height="138.8"/>
		<ellipse class="st15" cx="138.3" cy="835.9" rx="26.5" ry="26.4"/>
		<path class="st15" d="M247.4,811.8h71.9c3.3,0,6,2.7,6,6V855c0,3.3-2.7,6-6,6h-71.9c-3.3,0-6-2.7-6-6v-37.2
			C241.4,814.5,244.1,811.8,247.4,811.8z"/>
		<ellipse class="st15" cx="283.4" cy="823.2" rx="11" ry="26.9"/>
		<rect x="276.1" y="825.4" class="st16" width="14.6" height="6.4"/>
		<rect x="280.6" y="825.4" class="st17" width="5.5" height="6.4"/>
		<ellipse class="st15" cx="283.4" cy="856.4" rx="26.5" ry="26.4"/>
		<path class="st15" d="M278.7,789h9.2c1.5,0,2.7,1.2,2.7,2.7l0,0v33.8l0,0h-14.5l0,0v-33.8C276.1,790.2,277.3,789,278.7,789z"/>
		<path class="st15" d="M-39.5,807.5h72.8c3.3,0,6,2.7,6,6v40.8c0,3.3-2.7,6-6,6h-72.8c-3.3,0-6-2.7-6-6v-40.8
			C-45.5,810.1-42.8,807.5-39.5,807.5z"/>
		
			<ellipse transform="matrix(0.2889 -0.9574 0.9574 0.2889 -810.9749 569.6281)" class="st15" cx="-22" cy="830.7" rx="11.1" ry="24.3"/>
		<path class="st18" d="M44.1,849.2c-2.6,8.6-19.5,11-37.7,5.5c-6.8-2-13.2-5-18.9-9.1c-7.1-5.2-1.3-24.4,7.6-24.8
			c7-0.2,14,0.8,20.7,2.9C34,829.2,46.7,840.6,44.1,849.2z"/>
		<path class="st15" d="M-12.2,825.2l57.5,2.7v3.7l-36.5,0.9c0,0-8.2,2.7-2.7,10l30.1,19.1l-0.9,2.7l-51.1-23.7L-12.2,825.2z"/>
		<path class="st15" d="M-16.3,840.9l-26.1-5.7c-5.3-1.5-8.4-7.1-6.8-12.4l0,0l0,0c1.5-5.3,7.1-8.3,12.4-6.8c0,0,0,0,0.1,0l24.3,9.4
			L-16.3,840.9z"/>
		
			<rect x="-13.4" y="830.1" transform="matrix(0.2055 -0.9787 0.9787 0.2055 -823.9675 651.6415)" class="st17" width="5.5" height="6.4"/>
		<polygon class="st8" points="-72,665.3 -59.7,685.7 -117.6,720.6 -129.9,700.1 		"/>
		<path class="st8" d="M-143.2,678.2l11.3-6.8c3.3-2,7.5-0.9,9.5,2.3l17.9,29.6L3.3,638.4l-60-99.3l-125,75.2L-143.2,678.2z"/>
		<polygon class="st7" points="-58.9,546.9 -4.5,636.9 -101.2,695.1 -155.5,605.1 		"/>
		<polygon class="st8" points="-179.7,617.7 -145.6,674.1 -157.8,681.4 -191.8,625 		"/>
		<polygon class="st8" points="-217.4,658.2 -228.6,639.6 -203.3,624.4 -192,643 		"/>
		<ellipse class="st9" cx="-79.8" cy="621.3" rx="41.8" ry="41.7"/>
		
			<ellipse transform="matrix(0.9993 -3.837653e-02 3.837653e-02 0.9993 -23.9021 -2.6048)" class="st10" cx="-79.8" cy="621.3" rx="34.7" ry="34.7"/>
		<polygon class="st8" points="-230.8,654.4 -202,702 -160.4,677 -189.2,629.4 		"/>
		<ellipse class="st12" cx="198.6" cy="698" rx="26.1" ry="26.1"/>
		<ellipse class="st12" cx="58.2" cy="698" rx="26.1" ry="26.1"/>
		
			<use xlink:href="#New_Symbol_1"  width="105.6" height="97" x="-52.8" y="-48.5" transform="matrix(1.1889 0 0 1.1889 271.0302 994.947)" style="display:inline;overflow:visible;"/>
		
			<use xlink:href="#New_Symbol_1"  width="105.6" height="97" x="-52.8" y="-48.5" transform="matrix(1.1889 0 0 1.1889 138.3701 994.947)" style="display:inline;overflow:visible;"/>
		
			<use xlink:href="#New_Symbol_1"  width="105.6" height="97" x="-52.8" y="-48.5" transform="matrix(1.1889 0 0 1.1889 5.7201 994.947)" style="display:inline;overflow:visible;"/>
		<rect x="-79.2" y="917.6" class="st19" width="435.1" height="20"/>
		<polygon class="st8" points="-163.8,507.5 -203.8,522.6 -211.3,497.4 		"/>
		
			<rect x="-287.5" y="376.6" transform="matrix(0.2086 -0.978 0.978 0.2086 -590.2609 100.2854)" class="st8" width="108.6" height="76.5"/>
		
			<rect x="-248" y="332.1" transform="matrix(0.2086 -0.978 0.978 0.2086 -551.4496 71.7159)" class="st8" width="33.1" height="89"/>
		
			<rect x="-268.6" y="398.6" transform="matrix(0.2086 -0.978 0.978 0.2086 -611.1127 142.9275)" class="st8" width="102.7" height="101"/>
		
			<rect x="-174.9" y="263.8" transform="matrix(0.2086 -0.978 0.978 0.2086 -480.721 127.5756)" class="st8" width="26.8" height="194"/>
		<polygon class="st7" points="-26.8,406.5 -49,510.6 -113.2,518.2 -211.5,497.4 -180.6,352.5 -81.8,373.5 		"/>
		<ellipse class="st9" cx="-117" cy="441.7" rx="52.3" ry="52.2"/>
		<ellipse class="st10" cx="-117" cy="441.7" rx="43.4" ry="43.3"/>
		<polygon class="st8" points="415.4,586.8 458.2,585.4 457.1,611.7 		"/>
		<polygon class="st8" points="390,723.8 446,630.6 511.6,669.9 455.6,763 		"/>
		<polygon class="st8" points="390,723.8 407.1,695.4 483.4,741.1 466.4,769.5 		"/>
		<polygon class="st8" points="463.7,729.3 516.6,641.2 429.9,589.4 377.1,677.4 		"/>
		<polygon class="st8" points="289.2,663.5 275.4,686.4 441.8,786 455.6,763 		"/>
		<polygon class="st7" points="253,638 307.8,546.7 371.1,560.3 457.2,611.8 380.9,738.9 294.3,687 		"/>
		<ellipse class="st9" cx="349.8" cy="633.9" rx="52.3" ry="52.2"/>
		<ellipse class="st10" cx="349.8" cy="633.9" rx="43.4" ry="43.3"/>
	</g>
	<path class="st20" d="M233.3,137.3c0.5-1.8,0-3.8-1.1-5.3l-38.9-50.4c-1.2-1.5-3-2.4-4.9-2.4H120c-2,0-3.9,1-5,2.5l-37.2,50.4
		c-1,1.5-1.5,3.3-1.1,5L92,208.6c0.6,2.6-0.6,5.3-2.9,6.7l-7.2,4.3c-1.9,1.1-3.1,3.1-3.1,5.3v29c0,2.1,1,4.1,2.8,5.2l6.8,4.4
		c2.1,1.4,3.2,4,2.7,6.5l-15.5,73.1c-0.3,1.5,0,3.2,0.8,4.5l23.1,38.1c0.7,1.2,1.9,2.1,3.2,2.6l49.6,18.4c1.4,0.5,2.9,0.5,4.3,0
		l49.9-18.3c1.4-0.5,2.5-1.5,3.2-2.7l22.1-38.2c0.8-1.3,1-2.9,0.7-4.4L217,270c-0.5-2.5,0.5-5.1,2.7-6.5l6.7-4.4
		c1.8-1.1,2.8-3.1,2.8-5.2v-29.1c0-2.1-1.1-4.1-2.9-5.3l-7.3-4.7c-2.3-1.4-3.4-4.1-2.7-6.7L233.3,137.3z M84,239.6
		c0-15,12.2-27.2,27.3-27.2s27.3,12.2,27.3,27.2s-12.2,27.2-27.3,27.2C96.2,266.8,84,254.6,84,239.6z M218,325.2
		c0,34.9-28.3,63.2-63.3,63.2s-63.3-28.3-63.3-63.2s28.3-63.2,63.3-63.2C189.6,262,218,290.3,218,325.2z M225.3,239.6
		c0,15-12.2,27.2-27.3,27.2s-27.3-12.2-27.3-27.2s12.2-27.2,27.3-27.2C213.1,212.3,225.3,224.5,225.3,239.6z M154.6,214.6
		c-35,0-63.3-28.3-63.3-63.2s28.3-63.2,63.3-63.2s63.3,28.3,63.3,63.2C218,186.3,189.6,214.6,154.6,214.6z"/>
</g>
<g id="1-active">
	<g id="_x3C_chamber1active_x3E_">
		<path class="st20" d="M80.7,203.9L19,217.4c-3.1,0.7-6.2-1.3-6.8-4.4L0.9,161.5c-0.7-3.1,1.3-6.2,4.4-6.8l61.6-13.6
			c3.1-0.7,6.2,1.3,6.8,4.4L85,197C85.8,200.2,83.8,203.2,80.7,203.9z"/>
		<ellipse class="st21" cx="45.9" cy="178.9" rx="21.2" ry="21.2"/>
		<ellipse class="st20" cx="45.9" cy="178.9" rx="17.6" ry="17.6"/>
		<path class="st21" d="M47.5,185.8h-2v-9.7l-3,1v-1.7l4.7-1.7h0.3V185.8z"/>
	</g>
</g>
<g id="1-hover">
	<g id="_x3C_chamber1hover_x3E_">
		<path class="st20" d="M68.2,143c1.8,0,3.3,1.2,3.6,3l11.3,51.5c0.2,1,0,2-0.5,2.8s-1.4,1.4-2.4,1.7l-61.6,13.5
			c-0.3,0.1-0.6,0.1-0.8,0.1c-1.8,0-3.3-1.2-3.6-3L2.9,161.1c-0.2-1,0-2,0.5-2.8s1.4-1.4,2.4-1.6l61.6-13.6
			C67.6,143,67.9,143,68.2,143 M68.2,141c-0.4,0-0.8,0-1.2,0.1L5.3,154.7c-3.1,0.7-5.1,3.8-4.4,6.8L12.2,213
			c0.6,2.7,2.9,4.5,5.6,4.5c0.4,0,0.8,0,1.2-0.1l61.6-13.5c3.1-0.7,5.1-3.8,4.4-6.8l-11.3-51.5C73.2,142.8,70.8,141,68.2,141
			L68.2,141z"/>
		<ellipse class="st20" cx="45.9" cy="178.9" rx="17.6" ry="17.6"/>
		<path class="st21" d="M47.5,185.8h-2v-9.7l-3,1v-1.7l4.7-1.7h0.3V185.8z"/>
	</g>
</g>
<g id="2-active">
	<g id="_x3C_chamber2active_x3E_">
		<path class="st20" d="M69.2,126.6l-51-37.2c-2.6-1.9-3.1-5.5-1.3-8.1L48,38.8c1.9-2.6,5.5-3.1,8-1.3l51,37.2
			c2.6,1.9,3.1,5.5,1.3,8.1l-31.1,42.6C75.3,128,71.7,128.5,69.2,126.6z"/>
		<ellipse class="st21" cx="62.6" cy="82.1" rx="21.2" ry="21.2"/>
		<ellipse class="st20" cx="62.6" cy="82.1" rx="17.6" ry="17.6"/>
		<path class="st21" d="M66.8,88.2h-8.1v-1.4l4-4.4c0.6-0.6,1-1.2,1.2-1.6s0.4-0.9,0.4-1.3c0-0.6-0.2-1-0.5-1.4
			c-0.3-0.4-0.8-0.5-1.3-0.5c-0.7,0-1.2,0.2-1.5,0.6c-0.4,0.4-0.5,0.9-0.5,1.6h-2c0-0.7,0.2-1.4,0.5-2s0.8-1,1.4-1.4
			c0.6-0.3,1.3-0.5,2.2-0.5c1.2,0,2.1,0.3,2.8,0.9c0.7,0.6,1,1.4,1,2.4c0,0.6-0.2,1.2-0.5,1.9c-0.3,0.7-0.9,1.4-1.7,2.3l-3,3.2h5.6
			C66.8,86.6,66.8,88.2,66.8,88.2z"/>
	</g>
</g>
<g id="2-hover">
	<g id="_x3C_chambertwoactive_x3E_">
		<path class="st20" d="M52.7,38.4L52.7,38.4c0.8,0,1.6,0.2,2.2,0.7l51,37.2c0.8,0.6,1.3,1.4,1.5,2.4s-0.1,2-0.7,2.8l-31.1,42.6
			c-0.7,1-1.8,1.5-3,1.5c-0.8,0-1.6-0.3-2.2-0.7l-51-37.3c-0.8-0.6-1.3-1.4-1.5-2.4s0.1-2,0.7-2.8l31.1-42.6
			C50.4,39,51.5,38.4,52.7,38.4 M52.7,36.4c-1.8,0-3.5,0.8-4.6,2.4L16.9,81.3c-1.9,2.6-1.3,6.2,1.3,8.1l50.9,37.3
			c1,0.7,2.2,1.1,3.4,1.1c1.8,0,3.5-0.8,4.6-2.4l31.1-42.6c1.9-2.6,1.3-6.2-1.3-8.1l-51-37.2C55.1,36.7,53.9,36.4,52.7,36.4
			L52.7,36.4z"/>
		<ellipse class="st20" cx="62.6" cy="82.1" rx="17.6" ry="17.6"/>
		<path class="st21" d="M66.8,88.2h-8.1v-1.4l4-4.4c0.6-0.6,1-1.2,1.2-1.6s0.4-0.9,0.4-1.3c0-0.6-0.2-1-0.5-1.4
			c-0.3-0.4-0.8-0.5-1.3-0.5c-0.7,0-1.2,0.2-1.5,0.6c-0.4,0.4-0.5,0.9-0.5,1.6h-2c0-0.7,0.2-1.4,0.5-2s0.8-1,1.4-1.4
			c0.6-0.3,1.3-0.5,2.2-0.5c1.2,0,2.1,0.3,2.8,0.9c0.7,0.6,1,1.4,1,2.4c0,0.6-0.2,1.2-0.5,1.9c-0.3,0.7-0.9,1.4-1.7,2.3l-3,3.2h5.6
			C66.8,86.6,66.8,88.2,66.8,88.2z"/>
	</g>
</g>
<g id="3-active">
	<g id="_x3C_chamber3active_x3E_">
		<path class="st20" d="M201.6,75.7l50.1-38.4c2.5-1.9,6.1-1.5,8.1,1.1l32,41.8c1.9,2.5,1.5,6.1-1.1,8.1l-50.1,38.4
			c-2.5,1.9-6.1,1.5-8.1-1.1l-32.1-41.9C198.6,81.3,199.1,77.7,201.6,75.7z"/>
		
			<ellipse transform="matrix(0.192 -0.9814 0.9814 0.192 117.8987 307.3105)" class="st21" cx="245.6" cy="82.1" rx="21.2" ry="21.2"/>
		<ellipse class="st20" cx="245.7" cy="82" rx="17.6" ry="17.6"/>
		<path class="st21" d="M244.8,81.2h1.2c0.6,0,1.1-0.2,1.5-0.5s0.5-0.8,0.5-1.4s-0.2-1-0.5-1.3s-0.8-0.5-1.4-0.5
			c-0.5,0-1,0.2-1.3,0.5s-0.5,0.7-0.5,1.2h-2c0-0.6,0.2-1.2,0.5-1.7s0.8-0.9,1.4-1.2c0.6-0.3,1.2-0.4,2-0.4c1.2,0,2.2,0.3,2.8,0.9
			c0.7,0.6,1,1.4,1,2.5c0,0.5-0.2,1.1-0.5,1.5c-0.3,0.5-0.8,0.8-1.3,1.1c0.7,0.2,1.2,0.6,1.5,1.1s0.5,1.1,0.5,1.7
			c0,1.1-0.4,1.9-1.1,2.6s-1.7,1-2.9,1s-2.1-0.3-2.9-0.9c-0.7-0.6-1.1-1.4-1.1-2.5h2c0,0.5,0.2,1,0.5,1.3c0.4,0.3,0.8,0.5,1.4,0.5
			c0.6,0,1.1-0.2,1.5-0.5s0.5-0.8,0.5-1.4s-0.2-1.1-0.6-1.5c-0.4-0.3-0.9-0.5-1.7-0.5h-1.2v-1.6H244.8z"/>
	</g>
</g>
<g id="3-hover">
	<g id="_x3C_chamber3hover_x3E_">
		<path class="st20" d="M255.2,38.2L255.2,38.2c1.2,0,2.3,0.5,3,1.5l32,41.8c1.3,1.7,1,4-0.7,5.3l-50.1,38.4
			c-0.7,0.5-1.4,0.8-2.3,0.8c-1.2,0-2.3-0.5-3-1.5L202,82.6c-1.2-1.6-0.9-4,0.8-5.2L252.9,39C253.6,38.4,254.4,38.2,255.2,38.2
			 M255.2,36.2c-1.2,0-2.4,0.4-3.5,1.2l-50.1,38.4c-2.5,1.9-3,5.5-1.1,8l32.1,41.9c1.1,1.5,2.9,2.3,4.6,2.3c1.2,0,2.4-0.4,3.5-1.2
			l50.1-38.4c2.5-1.9,3-5.5,1.1-8.1l-32-41.8C258.7,36.9,256.9,36.2,255.2,36.2L255.2,36.2z"/>
		<ellipse class="st20" cx="245.7" cy="82" rx="17.6" ry="17.6"/>
		<path class="st21" d="M244.8,81.2h1.2c0.6,0,1.1-0.2,1.5-0.5s0.5-0.8,0.5-1.4s-0.2-1-0.5-1.3s-0.8-0.5-1.4-0.5
			c-0.5,0-1,0.2-1.3,0.5s-0.5,0.7-0.5,1.2h-2c0-0.6,0.2-1.2,0.5-1.7s0.8-0.9,1.4-1.2c0.6-0.3,1.2-0.4,2-0.4c1.2,0,2.2,0.3,2.8,0.9
			c0.7,0.6,1,1.4,1,2.5c0,0.5-0.2,1.1-0.5,1.5c-0.3,0.5-0.8,0.8-1.3,1.1c0.7,0.2,1.2,0.6,1.5,1.1s0.5,1.1,0.5,1.7
			c0,1.1-0.4,1.9-1.1,2.6s-1.7,1-2.9,1s-2.1-0.3-2.9-0.9c-0.7-0.6-1.1-1.4-1.1-2.5h2c0,0.5,0.2,1,0.5,1.3c0.4,0.3,0.8,0.5,1.4,0.5
			c0.6,0,1.1-0.2,1.5-0.5s0.5-0.8,0.5-1.4s-0.2-1.1-0.6-1.5c-0.4-0.3-0.9-0.5-1.7-0.5h-1.2v-1.6H244.8z"/>
	</g>
</g>
<g id="4-active">
	<g id="_x3C_chamber4active_x3E_">
		<path class="st20" d="M243.1,141.1l61.4,14.8c3.1,0.7,5,3.9,4.3,6.9l-12.4,51.3c-0.7,3.1-3.9,5-6.9,4.3l-61.4-14.7
			c-3.1-0.7-5-3.9-4.3-6.9l12.4-51.3C236.9,142.3,240,140.4,243.1,141.1z"/>
		
			<ellipse transform="matrix(0.1602 -0.9871 0.9871 0.1602 46.0812 413.7619)" class="st21" cx="266.2" cy="179.8" rx="21.2" ry="21.2"/>
		<ellipse class="st20" cx="266.2" cy="179.8" rx="17.6" ry="17.6"/>
		<path class="st21" d="M268.7,181h1.5v1.6h-1.5v2.7h-2v-2.7h-5.2l-0.1-1.2l5.2-8.2h2.1V181z M263.5,181h3.2v-5l-0.1,0.3L263.5,181z
			"/>
	</g>
</g>
<g id="4-hover">
	<g id="_x3C_chamber4hover_x3E_">
		<path class="st20" d="M241.8,143L241.8,143c0.3,0,0.6,0,0.9,0.1l61.4,14.8c1,0.2,1.8,0.8,2.3,1.7s0.7,1.9,0.5,2.8l-12.4,51.3
			c-0.4,1.7-1.9,2.9-3.7,2.9c-0.3,0-0.6,0-0.9-0.1l-61.4-14.7c-1-0.2-1.8-0.8-2.3-1.7s-0.7-1.9-0.5-2.8l12.4-51.3
			C238.5,144.2,240,143,241.8,143 M241.8,141c-2.6,0-5,1.8-5.6,4.5l-12.4,51.3c-0.7,3.1,1.2,6.2,4.3,6.9l61.4,14.7
			c0.4,0.1,0.9,0.2,1.3,0.2c2.6,0,5-1.8,5.6-4.4l12.4-51.3c0.7-3.1-1.2-6.2-4.3-6.9l-61.4-14.8C242.7,141,242.2,141,241.8,141
			L241.8,141z"/>
		<ellipse class="st20" cx="266.2" cy="179.8" rx="17.6" ry="17.6"/>
		<path class="st21" d="M268.7,181h1.5v1.6h-1.5v2.7h-2v-2.7h-5.2l-0.1-1.2l5.2-8.2h2.1V181z M263.5,181h3.2v-5l-0.1,0.3L263.5,181z
			"/>
	</g>
</g>
<g id="5-active">
	<g id="_x3C_chamber5active_x3E_">
		<path class="st20" d="M122.6,68.9V5.8c0-3.2,2.6-5.8,5.8-5.8H181c3.2,0,5.8,2.6,5.8,5.8v63.1c0,3.2-2.6,5.8-5.8,5.8h-52.8
			C125.1,74.6,122.6,72.1,122.6,68.9z"/>
		<ellipse class="st21" cx="154.6" cy="37.3" rx="21.2" ry="21.2"/>
		<ellipse class="st20" cx="154.6" cy="37.3" rx="17.6" ry="17.6"/>
		<path class="st21" d="M151.1,37.3l0.7-6.1h6.5v1.7h-4.8l-0.3,2.9c0.6-0.3,1.2-0.5,1.9-0.5c1.2,0,2,0.4,2.7,1.1c0.6,0.7,1,1.7,1,3
			c0,1.2-0.4,2.2-1.1,2.9c-0.7,0.7-1.7,1.1-2.9,1.1c-1.1,0-2-0.3-2.8-0.9c-0.7-0.6-1.1-1.5-1.2-2.5h2c0.1,0.6,0.3,1,0.6,1.3
			s0.8,0.5,1.3,0.5c0.6,0,1.1-0.2,1.4-0.7s0.5-1,0.5-1.8c0-0.7-0.2-1.3-0.6-1.7c-0.4-0.4-0.9-0.6-1.6-0.6c-0.4,0-0.7,0-0.9,0.1
			c-0.3,0.1-0.5,0.3-0.8,0.6L151.1,37.3z"/>
	</g>
</g>
<g id="5-hover">
	<g id="_x3C_chamberfivehover_x3E_">
		<path class="st20" d="M181,2c2.1,0,3.8,1.7,3.8,3.8v63.1c0,2.1-1.7,3.8-3.8,3.8h-52.8h-0.1c-2.1,0-3.7-1.6-3.7-3.7V5.8
			c0-2.1,1.7-3.8,3.8-3.8L181,2 M181,0h-52.7c-3.2,0-5.8,2.6-5.8,5.8v63.1c0,3.1,2.5,5.7,5.7,5.7h0.1h52.8c3.2,0,5.8-2.6,5.8-5.8
			V5.7C186.8,2.6,184.2,0,181,0L181,0z"/>
		<ellipse class="st20" cx="154.6" cy="37.3" rx="17.6" ry="17.6"/>
		<path class="st21" d="M151.1,37.3l0.7-6.1h6.5v1.7h-4.8l-0.3,2.9c0.6-0.3,1.2-0.5,1.9-0.5c1.2,0,2,0.4,2.7,1.1c0.6,0.7,1,1.7,1,3
			c0,1.2-0.4,2.2-1.1,2.9c-0.7,0.7-1.7,1.1-2.9,1.1c-1.1,0-2-0.3-2.8-0.9c-0.7-0.6-1.1-1.5-1.2-2.5h2c0.1,0.6,0.3,1,0.6,1.3
			s0.8,0.5,1.3,0.5c0.6,0,1.1-0.2,1.4-0.7s0.5-1,0.5-1.8c0-0.7-0.2-1.3-0.6-1.7c-0.4-0.4-0.9-0.6-1.6-0.6c-0.4,0-0.7,0-0.9,0.1
			c-0.3,0.1-0.5,0.3-0.8,0.6L151.1,37.3z"/>
	</g>
</g>
<g id="C-active">
	<g id="_x3C_chambercactive_x3E_">
		<path class="st20" d="M66.4,333.5l-61.8-13c-3.1-0.6-5.1-3.7-4.4-6.8L11,262.1c0.6-3.1,3.7-5.1,6.8-4.4l61.8,12.9
				c3.1,0.6,5.1,3.7,4.4,6.8l-10.8,51.7C72.5,332.1,69.5,334.1,66.4,333.5z"/>
		<ellipse transform="matrix(3.327795e-02 -0.9994 0.9994 3.327795e-02 -254.4669 329.3193)" class="st21" cx="43" cy="296.2" rx="23.7" ry="23.7"/>
		<ellipse class="st20" cx="43" cy="296.2" rx="19.7" ry="19.6"/>
		<path class="st21" d="M47.5,298.5c-0.1,1.3-0.6,2.3-1.4,3c-0.8,0.7-1.9,1.1-3.3,1.1c-1,0-1.8-0.2-2.5-0.7s-1.3-1.1-1.7-1.9
			s-0.6-1.8-0.6-2.9V296c0-1.1,0.2-2.1,0.6-3c0.4-0.9,1-1.5,1.7-2c0.8-0.5,1.6-0.7,2.6-0.7c1.3,0,2.4,0.4,3.2,1.1s1.3,1.7,1.4,3.1
			h-2.1c-0.1-0.9-0.4-1.5-0.8-1.9c-0.4-0.4-1-0.6-1.8-0.6c-0.9,0-1.6,0.3-2.1,1s-0.7,1.6-0.8,2.9v1.1c0,1.3,0.2,2.3,0.7,3
			s1.2,1,2.1,1c0.8,0,1.4-0.2,1.9-0.6s0.7-1,0.8-1.9H47.5z"/>
	</g>
</g>
<g id="C-hover">
	<g id="_x3C_chamberchover_x3E_">
		<path class="st20" d="M16.5,259.6L16.5,259.6c0.3,0,0.5,0,0.8,0.1l61.8,12.9c1,0.2,1.8,0.8,2.4,1.6C82,275,82.2,276,82,277
			l-10.8,51.7c-0.3,1.7-1.8,2.9-3.6,2.9c-0.3,0-0.5,0-0.8-0.1L5,318.6c-1-0.2-1.8-0.8-2.4-1.6c-0.5-0.8-0.7-1.8-0.5-2.8l10.8-51.6
			C13.2,260.8,14.8,259.6,16.5,259.6 M16.5,257.6c-2.6,0-5,1.9-5.6,4.6L0.1,313.7c-0.7,3.1,1.3,6.2,4.4,6.8l61.8,12.9
			c0.4,0.1,0.8,0.1,1.2,0.1c2.7,0,5-1.9,5.5-4.5l10.8-51.7c0.7-3.1-1.3-6.2-4.4-6.8l-61.8-12.9C17.3,257.6,16.9,257.6,16.5,257.6
			L16.5,257.6z"/>
		<ellipse class="st20" cx="43" cy="296.2" rx="19.7" ry="19.6"/>
		<path class="st21" d="M47.5,298.5c-0.1,1.3-0.6,2.3-1.4,3c-0.8,0.7-1.9,1.1-3.3,1.1c-1,0-1.8-0.2-2.5-0.7s-1.3-1.1-1.7-1.9
			s-0.6-1.8-0.6-2.9V296c0-1.1,0.2-2.1,0.6-3c0.4-0.9,1-1.5,1.7-2c0.8-0.5,1.6-0.7,2.6-0.7c1.3,0,2.4,0.4,3.2,1.1s1.3,1.7,1.4,3.1
			h-2.1c-0.1-0.9-0.4-1.5-0.8-1.9c-0.4-0.4-1-0.6-1.8-0.6c-0.9,0-1.6,0.3-2.1,1s-0.7,1.6-0.8,2.9v1.1c0,1.3,0.2,2.3,0.7,3
			s1.2,1,2.1,1c0.8,0,1.4-0.2,1.9-0.6s0.7-1,0.8-1.9H47.5z"/>
	</g>
</g>
<g id="D-active">
	<g id="_x3C_chamberdactive_x3E_">
		<path class="st20" d="M228.2,271.8l61.6-13.6c3.1-0.7,6.2,1.3,6.8,4.4l11.3,51.5c0.7,3.1-1.3,6.2-4.4,6.8l-61.6,13.6
			c-3.1,0.7-6.2-1.3-6.9-4.4l-11.4-51.5C223.1,275.5,225,272.4,228.2,271.8z"/>
		<ellipse class="st21" cx="265.1" cy="296.2" rx="23.7" ry="23.7"/>
		<ellipse class="st20" cx="265.1" cy="296.2" rx="19.7" ry="19.6"/>
		<path class="st21" d="M261.8,302.4v-12.1h3.6c1.1,0,2,0.2,2.8,0.7s1.5,1.2,1.9,2c0.5,0.9,0.7,1.9,0.7,3v0.6c0,1.1-0.2,2.2-0.7,3
			s-1.1,1.5-2,2s-1.8,0.7-2.9,0.7L261.8,302.4L261.8,302.4z M263.9,292v8.7h1.4c1.1,0,1.9-0.3,2.5-1s0.9-1.7,0.9-3V296
			c0-1.3-0.3-2.3-0.9-3s-1.4-1-2.5-1H263.9z"/>
	</g>
</g>
<g id="D-hover">
	<g id="_x3C_chamberdhover_x3E_">
		<path class="st20" d="M291.1,260c1.8,0,3.3,1.2,3.6,3l11.3,51.5c0.2,1,0,2-0.5,2.8s-1.4,1.4-2.4,1.6l-61.6,13.6
			c-0.3,0.1-0.6,0.1-0.8,0.1c-1.8,0-3.3-1.2-3.7-3l-11.4-51.5c-0.4-2,0.9-4.1,3-4.5l61.6-13.6C290.5,260.1,290.8,260,291.1,260
			 M291.1,258c-0.4,0-0.8,0-1.2,0.1l-61.6,13.6c-3.1,0.7-5.1,3.8-4.5,6.8l11.4,51.5c0.6,2.7,3,4.5,5.6,4.5c0.4,0,0.8,0,1.2-0.1
			l61.6-13.6c3.1-0.7,5.1-3.8,4.4-6.8l-11.3-51.5C296.1,259.9,293.7,258,291.1,258L291.1,258z"/>
		<ellipse class="st20" cx="265.1" cy="296.2" rx="19.7" ry="19.6"/>
		<path class="st21" d="M261.8,302.4v-12.1h3.6c1.1,0,2,0.2,2.8,0.7s1.5,1.2,1.9,2c0.5,0.9,0.7,1.9,0.7,3v0.6c0,1.1-0.2,2.2-0.7,3
			s-1.1,1.5-2,2s-1.8,0.7-2.9,0.7L261.8,302.4L261.8,302.4z M263.9,292v8.7h1.4c1.1,0,1.9-0.3,2.5-1s0.9-1.7,0.9-3V296
			c0-1.3-0.3-2.3-0.9-3s-1.4-1-2.5-1H263.9z"/>
	</g>
</g>
<g id="E-active">
	<g id="_x3C_chambereactive_x3E_">
		<path class="st20" d="M91.7,392.2L37.8,425c-2.7,1.6-6.3,0.8-7.9-1.9l-20-33c-1.6-2.7-0.8-6.3,1.9-7.9l53.9-32.8
			c2.7-1.6,6.3-0.8,7.9,1.9l20,33C95.3,387,94.4,390.6,91.7,392.2z"/>
		<ellipse class="st21" cx="59.4" cy="382.4" rx="18.9" ry="18.9"/>
		
			<ellipse transform="matrix(6.652050e-02 -0.9978 0.9978 6.652050e-02 -326.2103 416.1583)" class="st20" cx="59.3" cy="382.4" rx="15.7" ry="15.7"/>
		<path class="st21" d="M61.6,383.1h-5v3.7h5.8v1.7h-7.9v-12.1h7.8v1.7h-5.7v3.3h5C61.6,381.4,61.6,383.1,61.6,383.1z"/>
	</g>
</g>
<g id="E-hover">
	<g id="_x3C_chamberehover_x3E_">
		<path class="st20" d="M68.6,350.6L68.6,350.6c1.3,0,2.6,0.7,3.3,1.8l20,33l0,0l0,0c0.5,0.8,0.7,1.8,0.5,2.8s-0.8,1.8-1.7,2.3
			l-53.9,32.8c-0.6,0.4-1.3,0.5-1.9,0.5c-1.3,0-2.6-0.7-3.3-1.8l-20-32.9c-1.1-1.8-0.5-4.1,1.2-5.1l53.9-32.8
			C67.2,350.8,67.9,350.6,68.6,350.6 M68.6,348.6c-1,0-2,0.3-3,0.8l-53.9,32.8c-2.7,1.6-3.5,5.2-1.9,7.9l20,33c1.1,1.8,3,2.8,5,2.8
			c1,0,2-0.3,3-0.8l53.9-32.8c2.7-1.6,3.6-5.2,1.9-7.9l-20-33C72.4,349.6,70.5,348.6,68.6,348.6L68.6,348.6z"/>
		
			<ellipse transform="matrix(6.652050e-02 -0.9978 0.9978 6.652050e-02 -326.2103 416.1583)" class="st20" cx="59.3" cy="382.4" rx="15.7" ry="15.7"/>
		<path class="st21" d="M61.6,383.1h-5v3.7h5.8v1.7h-7.9v-12.1h7.8v1.7h-5.7v3.3h5C61.6,381.4,61.6,383.1,61.6,383.1z"/>
	</g>
</g>
<g id="F-active">
	<g id="_x3C_chamberfactive_x3E_">
		<path class="st20" d="M241.9,349.4l54.8,31.3c2.8,1.6,3.7,5.1,2.1,7.8l-18,31.5c-1.6,2.8-5.1,3.7-7.8,2.1l-54.8-31.3
			c-2.8-1.6-3.7-5.1-2.1-7.8l18-31.5C235.6,348.8,239.2,347.8,241.9,349.4z"/>
		<ellipse class="st21" cx="249.4" cy="381" rx="18.9" ry="18.9"/>
		<ellipse class="st20" cx="249.4" cy="381" rx="15.7" ry="15.7"/>
		<path class="st21" d="M253.3,383.4h-4.9v5.1h-2.1v-12.1h7.7v1.7h-5.6v3.6h4.9L253.3,383.4L253.3,383.4z"/>
	</g>
</g>
<g id="F-hover">
	<g id="_x3C_chamberfhover_x3E_">
		<path class="st20" d="M239.1,350.6L239.1,350.6c0.6,0,1.3,0.2,1.8,0.5l54.8,31.3c1.8,1,2.4,3.3,1.4,5.1l-18,31.5
			c-0.7,1.2-1.9,1.9-3.2,1.9c-0.6,0-1.3-0.2-1.9-0.5l-54.8-31.3c-1.8-1-2.4-3.3-1.4-5.1l18-31.5
			C236.5,351.3,237.7,350.6,239.1,350.6 M239.1,348.6c-2,0-4,1.1-5,2.9l-18,31.5c-1.6,2.8-0.6,6.3,2.1,7.8l54.8,31.3
			c0.9,0.5,1.9,0.8,2.9,0.8c2,0,3.9-1,5-2.9l18-31.5c1.6-2.8,0.6-6.3-2.1-7.8L242,349.4C241,348.8,240.1,348.6,239.1,348.6
			L239.1,348.6z"/>
		<ellipse class="st20" cx="249.4" cy="381" rx="15.7" ry="15.7"/>
		<path class="st21" d="M253.3,383.4h-4.9v5.1h-2.1v-12.1h7.7v1.7h-5.6v3.6h4.9L253.3,383.4L253.3,383.4z"/>
	</g>
</g>
</svg>
